inDegrees=yes
name=ik_S48_A03_T02
DataType=double
version=3
OpenSimVersion=4.3-2021-08-27-4bc7ad9
endheader
time	pelvis_tilt	pelvis_list	pelvis_rotation	pelvis_tx	pelvis_ty	pelvis_tz	hip_flexion_r	hip_adduction_r	hip_rotation_r	knee_angle_r	knee_angle_r_beta	ankle_angle_r	subtalar_angle_r	mtp_angle_r	hip_flexion_l	hip_adduction_l	hip_rotation_l	knee_angle_l	knee_angle_l_beta	ankle_angle_l	subtalar_angle_l	mtp_angle_l	lumbar_extension	lumbar_bending	lumbar_rotation	arm_flex_r	arm_add_r	arm_rot_r	elbow_flex_r	pro_sup_r	wrist_flex_r	wrist_dev_r	arm_flex_l	arm_add_l	arm_rot_l	elbow_flex_l	pro_sup_l	wrist_flex_l	wrist_dev_l
23.73999999999958	0.7243887588579522	0.02957844989316729	99.0141822164841	0	0.9399999999999999	0	-1.27652328687971	0.4110828138934363	9.560021468813019	-4.034009903678398	-0.07040675487724736	0	0	0	8.254025177746909	-10.26247065978237	15.45506539478916	12.44789663789197	0.2172567812791471	0	0	0	0	0	0	35.22950002194887	-35.22950002194887	4.657643791761571	80.34500910852628	85.34235646742596	0	0	35.22950002194887	-35.22950002194887	4.657643791761571	80.34500910852628	85.34235646736195	0	0
23.75999999999958	0.6501470792150441	-0.11485505960079	99.64323442011955	0	0.9399999999999999	0	-1.622816032985876	0.6207758004416731	9.277597720064838	-4.564855414545782	-0.07967175686131454	0	0	0	8.503808616370655	-10.13962485248726	15.01018256256316	12.52359205559695	0.2185779155467715	0	0	0	0	0	0	35.23134409008514	-35.23134409008514	4.657773343343357	80.34677480306581	85.3422269158505	0	0	35.23134409008514	-35.23134409008514	4.657773343343357	80.34677480306581	85.34222691578653	0	0
23.77999999999958	0.5286489531520359	-0.2065979706613007	100.1204478052311	0	0.9399999999999999	0	-1.552222302563414	0.4974287438279845	8.799126784108367	-4.59350103880095	-0.08017171732085637	0	0	0	8.631927484441324	-9.963765889494045	14.22105247638162	12.5509502214987	0.2190554056190638	0	0	0	0	0	0	35.24542247025898	-35.24542247025898	4.65862726035006	80.35840033399397	85.34137299888451	0	0	35.24542247025898	-35.24542247025898	4.65862726035006	80.35840033399397	85.34137299882072	0	0
23.79999999999958	0.3642312435090317	-0.2086308562115603	100.7369907715272	0	0.9399999999999999	0	-1.665802042180028	0.476896263755541	8.348231654685144	-4.724352670887001	-0.08245550913236621	0	0	0	8.615707248589722	-9.733183844567982	13.12314959269871	12.5071007538014	0.2182900880324991	0	0	0	0	0	0	35.2587891625948	-35.2587891625948	4.659441608326809	80.36948754038096	85.3405586509466	0	0	35.2587891625948	-35.2587891625948	4.659441608326809	80.36948754038096	85.340558650883	0	0
23.81999999999958	0.3424116821988593	-0.1991599286168605	100.9569723309092	0	0.9399999999999999	0	-1.672314839078624	0.4677050848924847	8.121583037969801	-4.704309591345563	-0.08210569140212902	0	0	0	8.554019541756546	-9.610744983178773	11.59456212721533	12.62620210751935	0.2203687987984597	0	0	0	0	0	0	35.27412643164864	-35.27412643164864	4.660368624326919	80.38210786419469	85.33963163499068	0	0	35.27412643164864	-35.27412643164864	4.660368624326919	80.38210786419469	85.33963163492723	0	0
23.83999999999958	0.2591022207346142	-0.1622877324037916	101.4133027962256	0	0.9399999999999999	0	-1.917868849445224	0.6029600173474313	8.127291176167688	-4.93929744503589	-0.08620700315121992	0	0	0	8.526336249423782	-9.364149885671541	10.06625676063282	12.83845995822161	0.2240733971564207	0	0	0	0	0	0	35.28632179409699	-35.28632179409699	4.661116617332674	80.39229215213011	85.33888364202068	0	0	35.28632179409699	-35.28632179409699	4.661116617332674	80.39229215213011	85.33888364195737	0	0
23.85999999999958	0.1744849632982288	-0.1572307534362307	101.9261028938441	0	0.9399999999999999	0	-2.057150523648549	0.5848470590019719	7.76079739037942	-5.10709670767525	-0.08913565276669548	0	0	0	8.636325470692253	-9.123729252468239	8.549231382846781	13.28723512776353	0.2319060014661231	0	0	0	0	0	0	35.30324102450673	-35.30324102450673	4.662142432976103	80.40625786144119	85.33785782642616	0	0	35.30324102450673	-35.30324102450673	4.662142432976103	80.40625786144119	85.33785782636305	0	0
23.87999999999958	0.1299674682452899	-0.1536218656492606	102.1894707409325	0	0.9399999999999999	0	-2.15146680117718	0.5812687816745233	7.602913450180558	-5.09335126701023	-0.08889574956995336	0	0	0	8.705621375594783	-8.968608733448326	6.243089649612525	13.83187545253871	0.2414117683725811	0	0	0	0	0	0	35.32356354429772	-35.32356354429772	4.663374387605004	80.42302991824887	85.33662587185599	0	0	35.32356354429772	-35.32356354429772	4.663374387605004	80.42302991824887	85.3366258717931	0	0
23.89999999999958	0.1315410075482292	-0.1540598914933554	102.1886967864949	0	0.9399999999999999	0	-2.220472493696549	0.6291038456643511	7.742538929360725	-5.111022834258604	-0.08920417660242506	0	0	0	8.649960905957956	-8.807024722755248	3.32493431337262	14.49187981364964	0.2529310175514884	0	0	0	0	0	0	35.34324758067974	-35.34324758067974	4.664570447962924	80.43931354160496	85.3354298115551	0	0	35.34324758067974	-35.34324758067974	4.664570447962924	80.43931354160496	85.33542981149246	0	0
23.91999999999958	-0.207024212605496	-0.06068758208852997	104.0383939847832	0	0.9399999999999999	0	-2.465046657217405	0.4585640658276952	6.115950294099518	-5.27013967940079	-0.09198128944554217	0	0	0	8.676102383982233	-8.220348606731653	4.557129936479569	14.95348098854315	0.2609874778844544	0	0	0	0	0	0	35.34910665853459	-35.34910665853459	4.664977720424828	80.44486359195012	85.33502253911306	0	0	35.34910665853459	-35.34910665853459	4.664977720424828	80.44486359195012	85.33502253905057	0	0
